<svg width="48" height="48" viewBox="0 0 48 48" fill="none" xmlns="http://www.w3.org/2000/svg">
<rect width="48" height="48" rx="6" fill="#5F86B1"/>
<path d="M39.7137 13.8816C38.5226 12.4655 36.3233 11.8879 32.1231 11.8879H16.8766C12.5803 11.8879 10.3437 12.5028 9.15702 14.0104C8 15.4803 8 17.646 8 20.6435V26.3566C8 32.1637 9.3728 35.1121 16.8766 35.1121H32.1232C35.7656 35.1121 37.7839 34.6024 39.0896 33.3527C40.4287 32.0713 41 29.979 41 26.3566V20.6435C41 17.4824 40.9105 15.3039 39.7137 13.8816ZM29.1861 24.2888L22.2627 27.9072C22.1079 27.9881 21.9387 28.0282 21.7696 28.0282C21.5782 28.0282 21.3872 27.9767 21.2181 27.8743C20.8996 27.6813 20.7051 27.3361 20.7051 26.9637V19.7501C20.7051 19.3784 20.8991 19.0335 21.2169 18.8404C21.5349 18.6473 21.9304 18.6341 22.2603 18.8055L29.1837 22.4006C29.5359 22.5835 29.7571 22.9471 29.7576 23.3438C29.7581 23.7409 29.5378 24.1051 29.1861 24.2888Z" fill="white"/>
</svg>
