<svg width="48" height="48" viewBox="0 0 48 48" fill="none" xmlns="http://www.w3.org/2000/svg">
<rect width="48" height="48" rx="6" fill="#5F86B1"/>
<path d="M17.1703 24.5106H20.5684V38.5C20.5684 38.7762 20.7922 39 21.0684 39H26.83C27.1062 39 27.33 38.7762 27.33 38.5V24.5765H31.2364C31.4904 24.5765 31.7041 24.3859 31.7331 24.1336L32.3264 18.9834C32.3427 18.8417 32.2978 18.6998 32.203 18.5935C32.1081 18.4871 31.9723 18.4262 31.8298 18.4262H27.3302V15.1978C27.3302 14.2246 27.8542 13.7311 28.8878 13.7311C29.0351 13.7311 31.8298 13.7311 31.8298 13.7311C32.106 13.7311 32.3298 13.5072 32.3298 13.2311V8.5037C32.3298 8.2275 32.106 8.0037 31.8298 8.0037H27.7753C27.7467 8.0023 27.6832 8 27.5896 8C26.8861 8 24.4408 8.1381 22.5092 9.9151C20.369 11.8843 20.6665 14.2421 20.7376 14.6509V18.4261H17.1703C16.8941 18.4261 16.6703 18.6499 16.6703 18.9261V24.0105C16.6703 24.2867 16.8941 24.5106 17.1703 24.5106Z" fill="white"/>
</svg>
