<svg width="43" height="48" viewBox="0 0 43 48" fill="none" xmlns="http://www.w3.org/2000/svg">
<g clip-path="url(#clip0_40_221)">
<path d="M41.3376 0H1.66239C0.74427 0 0 0.994095 0 2.26455V37.0336C0 38.3039 0.74427 39.2587 1.66239 39.2587H13.6314V43.3993H12.9658C12.0478 43.3993 11.3035 44.4292 11.3035 45.6997C11.3035 46.9701 12.0477 48 12.9658 48H30.0342C30.9522 48 31.6965 46.9701 31.6965 45.6997C31.6965 44.4292 30.9523 43.3993 30.0342 43.3993H29.3686V39.2587H41.3376C42.2556 39.2587 43 38.3039 43 37.0336V2.26455C43 0.994095 42.2556 0 41.3376 0ZM38.4562 30.5942C38.4562 31.3988 37.9847 32.051 37.4034 32.051H5.59663C5.01513 32.051 4.54381 31.3988 4.54381 30.5942V8.51117C4.54381 7.7065 5.01513 7.05431 5.59663 7.05431H37.4034C37.9848 7.05431 38.4562 7.7065 38.4562 8.51117V30.5942Z" fill="white"/>
<path d="M15.5002 14C13.0189 14 11 16.6914 11 19.9997C11 23.3081 13.0187 26 15.5002 26C17.9814 26 20 23.3083 20 19.9997C20.0002 16.6914 17.9816 14 15.5002 14Z" fill="white"/>
<path d="M8 10.3222V29.1573H35V10.3222H8ZM15.3546 25.2885C13.2996 25.2885 11.6279 22.808 11.6279 19.7589C11.6279 16.71 13.2996 14.2294 15.3546 14.2294C17.4094 14.2294 19.0812 16.7099 19.0812 19.7589C19.0812 22.8078 17.4094 25.2885 15.3546 25.2885ZM30.3657 24.2242H23.0112C22.4826 24.2242 22.0542 23.5885 22.0542 22.8041C22.0542 22.0197 22.4826 21.384 23.0112 21.384H30.3657C30.8944 21.384 31.3228 22.0197 31.3228 22.8041C31.3228 23.5885 30.8944 24.2242 30.3657 24.2242ZM30.3657 18.3944H23.0112C22.4826 18.3944 22.0542 17.7587 22.0542 16.9743C22.0542 16.1899 22.4826 15.5542 23.0112 15.5542H30.3657C30.8944 15.5542 31.3228 16.1899 31.3228 16.9743C31.3228 17.7586 30.8944 18.3944 30.3657 18.3944Z" fill="white"/>
</g>
<defs>
<clipPath id="clip0_40_221">
<rect width="43" height="48" fill="white"/>
</clipPath>
</defs>
</svg>
