<svg width="41" height="46" viewBox="0 0 41 46" fill="none" xmlns="http://www.w3.org/2000/svg">
<g clip-path="url(#clip0_39_172)">
<path d="M34.2857 3.98955V37.6158C34.2857 38.2453 34.6695 38.7557 35.1429 38.7557C35.5636 38.7557 35.9136 38.3524 35.9862 37.8207L36 37.6158V6.83923H38.1429C39.7169 6.83923 41.0078 8.45127 41.1329 10.5016L41.1429 10.8288V38.1857C41.1429 42.1366 38.8175 45.3652 35.8876 45.5832L35.5714 45.5949H5.57143C2.60052 45.5949 0.172721 42.5025 0.00881972 38.6062L0 38.1857V3.98955C0 1.89635 1.21219 0.179661 2.75395 0.0132253L3 0H31.2857C32.8597 0 34.1506 1.61203 34.2758 3.66235L34.2857 3.98955ZM13.2798 20.5256H9C7.42599 20.5256 6.1351 22.1377 6.00994 24.188L6 24.5152V30.2066C6 32.2998 7.21219 34.0165 8.75395 34.1829L9 34.1962H13.2798C14.8538 34.1962 16.1447 32.5841 16.2698 30.5338L16.2798 30.2066V24.5152C16.2798 22.422 15.0676 20.7053 13.5258 20.5388L13.2798 20.5256ZM27 30.7766H21L20.8255 30.7922C20.198 30.9054 19.7143 31.6208 19.7143 32.4864C19.7143 33.352 20.198 34.0673 20.8255 34.1806L21 34.1962H27L27.1745 34.1806C27.802 34.0673 28.2857 33.352 28.2857 32.4864C28.2857 31.6208 27.802 30.9054 27.1745 30.7922L27 30.7766ZM9 23.9452H13.2798C13.4826 23.9452 13.6526 24.1327 13.697 24.3845L13.7083 24.5152V30.2066C13.7083 30.4764 13.5674 30.7024 13.378 30.7615L13.2798 30.7766H9C8.79712 30.7766 8.62717 30.5891 8.58275 30.3373L8.57143 30.2066V24.5152C8.57143 24.2454 8.7124 24.0194 8.90173 23.9603L9 23.9452ZM27 20.5256H21L20.8255 20.5412C20.198 20.6544 19.7143 21.3698 19.7143 22.2354C19.7143 23.101 20.198 23.8164 20.8255 23.9296L21 23.9452H27L27.1745 23.9296C27.802 23.8164 28.2857 23.101 28.2857 22.2354C28.2857 21.3698 27.802 20.6544 27.1745 20.5412L27 20.5256ZM27 10.2512H7.28571L7.11125 10.2668C6.48369 10.3801 6 11.0954 6 11.961C6 12.8267 6.48369 13.542 7.11125 13.6552L7.28571 13.6709H27L27.1745 13.6552C27.802 13.542 28.2857 12.8267 28.2857 11.961C28.2857 11.0954 27.802 10.3801 27.1745 10.2668L27 10.2512Z" fill="white"/>
</g>
<defs>
<clipPath id="clip0_39_172">
<rect width="41" height="46" fill="white"/>
</clipPath>
</defs>
</svg>
