<svg width="42" height="48" viewBox="0 0 42 48" fill="none" xmlns="http://www.w3.org/2000/svg">
<g clip-path="url(#clip0_41_406)">
<path d="M12.75 9.6H29.25C30.075 9.6 30.75 8.88 30.75 8V4.8C30.75 2.16 28.725 0 26.25 0H15.75C13.275 0 11.25 2.16 11.25 4.8V8C11.25 8.88 11.925 9.6 12.75 9.6Z" fill="white"/>
<path d="M37.5 4H36C35.55 4 35.25 4.32 35.25 4.8V8C35.25 11.52 32.55 14.4 29.25 14.4H12.75C9.45 14.4 6.75 11.52 6.75 8V4.8C6.75 4.32 6.45 4 6 4H4.5C2.025 4 0 6.16 0 8.8V43.2C0 45.84 2.025 48 4.5 48H37.5C39.975 48 42 45.84 42 43.2V8.8C42 6.16 39.975 4 37.5 4ZM12.75 38.4C12.75 39.28 12.075 40 11.25 40H9.75C8.925 40 8.25 39.28 8.25 38.4V36.8C8.25 35.92 8.925 35.2 9.75 35.2H11.25C12.075 35.2 12.75 35.92 12.75 36.8V38.4ZM12.75 30.4C12.75 31.28 12.075 32 11.25 32H9.75C8.925 32 8.25 31.28 8.25 30.4V28.8C8.25 27.92 8.925 27.2 9.75 27.2H11.25C12.075 27.2 12.75 27.92 12.75 28.8V30.4ZM12.75 22.4C12.75 23.28 12.075 24 11.25 24H9.75C8.925 24 8.25 23.28 8.25 22.4V20.8C8.25 19.92 8.925 19.2 9.75 19.2H11.25C12.075 19.2 12.75 19.92 12.75 20.8V22.4ZM33.75 38.4C33.75 39.28 33.075 40 32.25 40H17.25C16.425 40 15.75 39.28 15.75 38.4V36.8C15.75 35.92 16.425 35.2 17.25 35.2H32.25C33.075 35.2 33.75 35.92 33.75 36.8V38.4ZM33.75 30.4C33.75 31.28 33.075 32 32.25 32H17.25C16.425 32 15.75 31.28 15.75 30.4V28.8C15.75 27.92 16.425 27.2 17.25 27.2H32.25C33.075 27.2 33.75 27.92 33.75 28.8V30.4ZM33.75 22.4C33.75 23.28 33.075 24 32.25 24H17.25C16.425 24 15.75 23.28 15.75 22.4V20.8C15.75 19.92 16.425 19.2 17.25 19.2H32.25C33.075 19.2 33.75 19.92 33.75 20.8V22.4Z" fill="white"/>
</g>
<defs>
<clipPath id="clip0_41_406">
<rect width="42" height="48" fill="white"/>
</clipPath>
</defs>
</svg>
