<svg width="49" height="48" viewBox="0 0 49 48" fill="none" xmlns="http://www.w3.org/2000/svg">
<g clip-path="url(#clip0_41_369)">
<path d="M29.3908 47.9258H19.5992C18.4736 47.9258 17.5672 47.0371 17.5672 45.9336V41.5586C17.2783 41.4512 16.9994 41.334 16.7205 41.2168L13.5828 44.3125C12.8158 45.0547 11.4711 45.0645 10.7041 44.3125L3.78125 37.5254C3.40273 37.1543 3.18359 36.6465 3.18359 36.1191C3.18359 35.5918 3.40273 35.084 3.78125 34.7129L6.92891 31.6172C6.80937 31.3438 6.68984 31.0703 6.58027 30.7871H2.12773C1.00215 30.7871 0.0957031 29.8984 0.0957031 28.7949V19.1953C0.0957031 18.0918 1.00215 17.2031 2.12773 17.2031H6.59023C6.6998 16.9199 6.81934 16.6465 6.93887 16.373L3.78125 13.2969C2.98438 12.5156 2.98438 11.2559 3.78125 10.4746L10.7041 3.6875C11.501 2.90625 12.7859 2.90625 13.5828 3.6875L16.7305 6.77344C17.0094 6.65625 17.2883 6.53906 17.5771 6.43164V2.06641C17.5771 0.962891 18.4836 0.0742188 19.6092 0.0742188H29.4008C30.5264 0.0742188 31.4328 0.962891 31.4328 2.06641V6.44141C31.7217 6.54883 32.0006 6.66602 32.2795 6.7832L35.4172 3.6875C36.2141 2.90625 37.499 2.90625 38.2959 3.6875L45.2188 10.4746C46.0156 11.2559 46.0156 12.5156 45.2188 13.2969L42.0711 16.3828C42.1906 16.6562 42.3102 16.9297 42.4197 17.2129H46.8822C48.0078 17.2129 48.9143 18.1016 48.9143 19.2051V28.8047C48.9143 29.9082 48.0078 30.7969 46.8822 30.7969H42.4197C42.3102 31.0801 42.1906 31.3535 42.0711 31.627L45.2188 34.7129C46.0156 35.4941 46.0156 36.7539 45.2188 37.5352L38.2959 44.3125C37.5289 45.0645 36.1842 45.0645 35.4172 44.3125L32.2695 41.2266C31.9906 41.3437 31.7117 41.4609 31.4229 41.5684V45.9434C31.4229 47.0371 30.5164 47.9258 29.3908 47.9258V47.9258ZM21.6412 43.9414H27.3588V40.1426C27.3588 39.2637 27.9465 38.4824 28.8131 38.2285C29.8391 37.9258 30.8152 37.5352 31.7117 37.0566C32.5086 36.6367 33.4848 36.7734 34.1223 37.3984L36.8615 40.084L40.9057 36.1191L38.1664 33.4336C37.5289 32.8086 37.3895 31.8516 37.8178 31.0703C38.3059 30.1914 38.7043 29.2441 39.0131 28.2285C39.2721 27.3789 40.059 26.8027 40.9654 26.8027H44.8502V21.1973H40.9654C40.0689 21.1973 39.2721 20.6211 39.0131 19.7715C38.7043 18.7656 38.3059 17.8086 37.8178 16.9297C37.3895 16.1484 37.5289 15.1914 38.1664 14.5664L40.9057 11.8809L36.8615 7.91602L34.1223 10.6016C33.4848 11.2266 32.5086 11.3633 31.7117 10.9434C30.8152 10.4648 29.849 10.0742 28.8131 9.77148C27.9465 9.51758 27.3588 8.74609 27.3588 7.85742V4.04883H21.6412V7.85742C21.6412 8.73633 21.0535 9.51758 20.1869 9.77148C19.1609 10.0742 18.1848 10.4648 17.2883 10.9434C16.5014 11.3633 15.5152 11.2266 14.8777 10.6016L12.1385 7.91602L8.09434 11.8809L10.8336 14.5664C11.4711 15.1914 11.6105 16.1484 11.1822 16.9297C10.6941 17.8086 10.2957 18.7559 9.98691 19.7715C9.72793 20.6211 8.94102 21.1973 8.03457 21.1973H4.1498V26.8027H8.03457C8.93105 26.8027 9.72793 27.3789 9.98691 28.2285C10.2957 29.2344 10.6941 30.1914 11.1822 31.0703C11.6105 31.8516 11.4711 32.8086 10.8336 33.4336L8.09434 36.1191L12.1385 40.084L14.8777 37.3984C15.5152 36.7734 16.4914 36.6367 17.2883 37.0566C18.1848 37.5352 19.1609 37.9258 20.1869 38.2285C21.0535 38.4824 21.6412 39.2539 21.6412 40.1426V43.9414V43.9414Z" fill="white"/>
<path d="M24.5 34.6543C18.5035 34.6543 13.6326 29.8789 13.6326 24C13.6326 18.1211 18.5035 13.3457 24.5 13.3457C30.4965 13.3457 35.3674 18.1211 35.3674 24C35.3674 29.8789 30.4965 34.6543 24.5 34.6543ZM24.5 17.3301C20.7547 17.3301 17.6967 20.3184 17.6967 24C17.6967 27.6719 20.7447 30.6699 24.5 30.6699C28.2453 30.6699 31.3033 27.6816 31.3033 24C31.3033 20.3281 28.2453 17.3301 24.5 17.3301V17.3301Z" fill="white"/>
</g>
<defs>
<clipPath id="clip0_41_369">
<rect width="49" height="48" fill="white"/>
</clipPath>
</defs>
</svg>
