<svg width="377" height="95" viewBox="0 0 377 95" fill="none" xmlns="http://www.w3.org/2000/svg">
    <path d="M58.1955 40.0041L54.8618 43.0524C52.7532 40.9891 50.2951 39.9574 47.4875 39.9574C45.0428 39.9574 42.9936 40.7072 41.3401 42.2068C39.6866 43.7064 38.8615 45.5303 38.8648 47.6787C38.8648 49.9003 39.7218 51.7811 41.4359 53.3213C43.15 54.8614 45.2645 55.6326 47.7792 55.6348C49.4144 55.6348 50.7932 55.3171 51.9156 54.6817C53.0379 54.0464 53.9428 53.0511 54.6301 51.6959H47.4317V47.5853H59.9332L59.9674 48.5542C59.9674 50.5654 59.404 52.4723 58.2772 54.2752C57.1504 56.078 55.6924 57.4532 53.9033 58.4007C52.112 59.3488 50.0112 59.8228 47.6009 59.8228C45.0206 59.8228 42.7197 59.3047 40.6984 58.2683C38.716 57.2683 37.0536 55.7332 35.8994 53.837C34.738 51.9758 34.1258 49.8247 34.1334 47.6312C34.1334 44.5887 35.2204 41.9419 37.3946 39.6908C39.9744 37.0132 43.3315 35.6741 47.4659 35.6736C49.6289 35.6736 51.6508 36.0435 53.5316 36.7833C55.1201 37.4098 56.6748 38.4834 58.1955 40.0041Z" fill="white"/>
    <path d="M72.539 41.8021C74.2352 41.7951 75.9067 42.2087 77.4038 43.0059C78.9217 43.8079 80.1063 44.8968 80.9575 46.2725C81.7968 47.6065 82.2396 49.1514 82.2344 50.7272C82.2376 52.3177 81.7922 53.877 80.9492 55.2259C80.1013 56.6148 78.8912 57.7469 77.4488 58.5009C75.9703 59.2873 74.3403 59.6806 72.559 59.6806C69.9381 59.6806 67.7006 58.8133 65.8465 57.0788C63.9924 55.3442 63.0656 53.2368 63.0662 50.7563C63.0662 48.0987 64.1135 45.8843 66.2082 44.1131C68.0429 42.573 70.1531 41.8026 72.539 41.8021ZM72.6148 45.8193C71.1897 45.8193 70.0031 46.2803 69.0552 47.2023C68.1073 48.1243 67.6331 49.3045 67.6326 50.743C67.6326 52.2226 68.1012 53.4209 69.0386 54.3378C69.9759 55.2548 71.1624 55.7133 72.5982 55.7133C74.0339 55.7133 75.2285 55.2495 76.182 54.322C77.1354 53.3945 77.6124 52.2004 77.613 50.7397C77.613 49.2812 77.1446 48.0957 76.2078 47.1831C75.271 46.2706 74.0734 45.8166 72.6148 45.821V45.8193Z" fill="white"/>
    <path d="M90.7187 35.6746V44.1156C91.5011 43.3751 92.4146 42.7866 93.4124 42.3802C94.3988 41.9911 95.4507 41.7948 96.5111 41.8021C98.9003 41.8021 100.932 42.641 102.607 44.3189C104.282 45.9968 105.118 48.1484 105.116 50.7738C105.116 53.3064 104.251 55.4245 102.523 57.1279C100.794 58.8313 98.7453 59.683 96.3761 59.683C95.3699 59.692 94.3707 59.5146 93.4291 59.1598C92.5195 58.8105 91.6161 58.2401 90.7187 57.4486V59.2457H86.1548V35.6746H90.7187ZM95.5527 45.741C94.1047 45.741 92.9035 46.1995 91.9489 47.1165C90.9943 48.0334 90.5173 49.2317 90.5179 50.7113C90.5179 52.2226 90.9949 53.4445 91.9489 54.377C92.9029 55.3095 94.1042 55.7758 95.5527 55.7758C96.9562 55.7758 98.1377 55.3017 99.0973 54.3536C100.057 53.4056 100.537 52.1967 100.537 50.7271C100.537 49.2686 100.065 48.0729 99.1206 47.1398C98.1761 46.2067 96.9862 45.7393 95.551 45.7377L95.5527 45.741Z" fill="white"/>
    <path d="M110.8 35.2405C111.6 35.2233 112.375 35.5144 112.966 36.0536C113.568 36.5951 113.869 37.2516 113.868 38.023C113.868 38.7834 113.571 39.4321 112.976 39.9692C112.393 40.5009 111.628 40.7889 110.839 40.774C110.033 40.7912 109.252 40.4972 108.658 39.9534C108.057 39.4057 107.757 38.7415 107.757 37.9606C107.757 37.2102 108.054 36.5693 108.65 36.0377C109.246 35.5062 109.962 35.2405 110.8 35.2405ZM108.403 42.2386H113.197V59.2456H108.403V42.2386Z" fill="white"/>
    <path d="M135.775 51.9775H120.99C121.203 53.1861 121.774 54.1475 122.702 54.8617C123.63 55.576 124.813 55.9328 126.251 55.9323C127.97 55.9323 129.448 55.3746 130.685 54.2594L134.562 55.9473C133.595 57.2197 132.437 58.1603 131.089 58.769C129.74 59.3777 128.139 59.6832 126.284 59.6854C123.407 59.6854 121.064 58.8443 119.254 57.1619C117.444 55.4796 116.539 53.3718 116.539 50.8386C116.539 48.2444 117.441 46.0899 119.246 44.3754C121.05 42.6609 123.312 41.8039 126.031 41.8044C128.921 41.8044 131.27 42.6614 133.078 44.3754C134.887 46.0894 135.792 48.3532 135.793 51.1669L135.775 51.9775ZM131.173 48.6168C130.868 47.6687 130.269 46.8975 129.374 46.3032C128.48 45.7089 127.441 45.4121 126.259 45.4126C124.975 45.4126 123.849 45.7459 122.881 46.4124C122.273 46.8289 121.71 47.5634 121.193 48.6159L131.173 48.6168Z" fill="white"/>
    <path d="M138.493 42.2385H142.422V44.3804C142.847 43.5368 143.412 42.8958 144.118 42.4576C144.812 42.0232 145.616 41.7955 146.435 41.8011C147.08 41.813 147.715 41.9621 148.298 42.2385L146.872 45.9117C146.334 45.6617 145.892 45.5368 145.545 45.5368C144.84 45.5368 144.244 45.9431 143.757 46.7556C143.27 47.5682 143.027 49.1627 143.026 51.5393L143.044 52.3674V59.2447H138.493V42.2385Z" fill="white"/>
    <path d="M150.762 42.2387H155.375V43.9815C156.421 43.1662 157.368 42.5988 158.218 42.2795C159.051 41.9635 159.934 41.8015 160.825 41.8013C162.647 41.8013 164.193 42.39 165.465 43.5675C166.533 44.5672 167.067 46.0468 167.067 48.0062V59.2449H162.505V51.7986C162.505 49.7691 162.407 48.4214 162.21 47.7555C162.013 47.0896 161.671 46.5819 161.182 46.2326C160.693 45.8843 160.089 45.7099 159.37 45.7094C158.437 45.7094 157.636 45.9985 156.968 46.5766C156.299 47.1548 155.836 47.9535 155.578 48.9727C155.443 49.5042 155.375 50.6544 155.375 52.4234V59.2457H150.762V42.2387Z" fill="white"/>
    <path d="M180.142 41.8021C181.844 41.7953 183.52 42.2088 185.023 43.0059C186.546 43.8079 187.736 44.8968 188.59 46.2725C189.433 47.6053 189.877 49.1506 189.872 50.7272C189.875 52.3184 189.428 53.878 188.582 55.2259C187.729 56.6164 186.513 57.7485 185.065 58.5009C183.581 59.2873 181.945 59.6806 180.157 59.6806C177.526 59.6806 175.281 58.8133 173.42 57.0788C171.559 55.3442 170.629 53.2368 170.629 50.7563C170.629 48.0987 171.68 45.8843 173.782 44.1131C175.627 42.573 177.747 41.8026 180.142 41.8021ZM180.218 45.8193C178.788 45.8193 177.597 46.2803 176.645 47.2023C175.693 48.1243 175.218 49.3045 175.218 50.743C175.218 52.2226 175.688 53.4209 176.629 54.3378C177.569 55.2548 178.76 55.7133 180.202 55.7133C181.642 55.7133 182.842 55.2495 183.8 54.322C184.759 53.3945 185.237 52.2004 185.235 50.7397C185.235 49.2812 184.765 48.0956 183.825 47.1831C182.885 46.2706 181.683 45.8165 180.218 45.821V45.8193Z" fill="white"/>
    <path d="M64.0254 69.8052H66.0707V81.7186H64.0254V80.8113C63.682 81.1713 63.2748 81.4646 62.8244 81.6761C62.4125 81.8548 61.9675 81.945 61.5185 81.941C60.4655 81.941 59.5549 81.5106 58.7864 80.6497C58.018 79.7888 57.6341 78.7186 57.6346 77.4389C57.6346 76.1115 58.0061 75.0243 58.7489 74.1773C59.4918 73.3303 60.395 72.9063 61.4584 72.9052C61.9331 72.9022 62.4028 73.002 62.8353 73.1976C63.286 73.4083 63.6905 73.7062 64.0254 74.074V69.8052ZM61.8752 74.8913C61.5765 74.8852 61.2801 74.9455 61.0076 75.0678C60.735 75.1901 60.4931 75.3714 60.2991 75.5986C59.8824 76.0701 59.6741 76.6741 59.6741 77.4106C59.6741 78.1471 59.8869 78.758 60.3125 79.2434C60.5049 79.4721 60.7458 79.6551 61.0176 79.7795C61.2894 79.9038 61.5854 79.9663 61.8843 79.9624C62.1863 79.9691 62.486 79.9092 62.7621 79.7869C63.0383 79.6647 63.2841 79.4831 63.482 79.2551C63.9054 78.7841 64.1171 78.1668 64.1171 77.4031C64.1171 76.6555 63.9054 76.0501 63.482 75.5869C63.2807 75.3614 63.0327 75.1823 62.7553 75.0622C62.4778 74.9421 62.1775 74.8837 61.8752 74.8913Z" fill="white"/>
    <path d="M76.3512 78.0431H69.7803C69.8754 78.654 70.129 79.1397 70.5413 79.5002C70.9535 79.8606 71.4792 80.0408 72.1181 80.0408C72.4879 80.0452 72.8546 79.9724 73.1946 79.8269C73.5346 79.6814 73.8404 79.4666 74.0925 79.1961L75.8161 80.0492C75.386 80.6912 74.8715 81.1664 74.2726 81.4746C73.6736 81.7829 72.9618 81.937 72.1373 81.937C70.8594 81.937 69.8178 81.5118 69.0127 80.6615C68.2076 79.8112 67.8057 78.7462 67.8068 77.4665C67.8068 76.1552 68.2076 75.0666 69.0094 74.2008C69.8112 73.3349 70.8163 72.9017 72.0248 72.9011C73.3083 72.9011 74.3523 73.3343 75.1568 74.2008C75.9614 75.0672 76.3634 76.2111 76.3628 77.6323L76.3512 78.0431ZM74.3059 76.3452C74.1775 75.878 73.8961 75.4673 73.5066 75.1788C73.1081 74.8786 72.6204 74.7205 72.1215 74.7298C71.5781 74.721 71.0483 74.8996 70.6213 75.2355C70.3507 75.446 70.1007 75.8173 69.8712 76.3494L74.3059 76.3452Z" fill="white"/>
    <path d="M77.828 69.8052H79.8741V81.7186H77.828V69.8052Z" fill="white"/>
    <path d="M86.8566 66.3279H95.2826V69.1929H89.7736V71.9738H95.2826V74.7864H89.7736V78.8328H95.2826V81.7079H86.8566V66.3279Z" fill="white"/>
    <path d="M97.788 70.3326H100.686V71.499C101.343 70.953 101.938 70.5737 102.472 70.3609C102.992 70.1502 103.548 70.0416 104.11 70.041C105.255 70.041 106.227 70.4348 107.027 71.2224C107.698 71.8889 108.033 72.8786 108.033 74.1916V81.7087H105.167V76.7292C105.167 75.3712 105.106 74.4695 104.982 74.0241C104.859 73.5787 104.643 73.2393 104.335 73.006C104.006 72.7656 103.605 72.6424 103.198 72.6561C102.638 72.6467 102.096 72.8559 101.688 73.2393C101.268 73.6281 100.977 74.1624 100.814 74.8422C100.73 75.1971 100.688 75.9664 100.687 77.1499V81.7137H97.7896L97.788 70.3326Z" fill="white"/>
    <path d="M122.202 72.6327L119.777 73.9399C119.322 73.4728 118.871 73.1484 118.426 72.9668C117.927 72.7762 117.396 72.684 116.862 72.6952C115.772 72.6952 114.891 73.0137 114.218 73.6508C113.546 74.2878 113.21 75.1037 113.209 76.0985C113.209 77.066 113.533 77.8558 114.181 78.4678C114.829 79.0799 115.68 79.3853 116.734 79.3842C118.036 79.3842 119.051 78.9485 119.777 78.0771L122.074 79.6183C120.829 81.2046 119.072 81.9977 116.804 81.9977C114.763 81.9977 113.165 81.4054 112.009 80.2207C110.853 79.036 110.275 77.6475 110.275 76.0551C110.267 74.9823 110.559 73.9286 111.118 73.0126C111.685 72.0811 112.499 71.3247 113.47 70.8274C114.477 70.2981 115.602 70.0334 116.847 70.0334C117.999 70.0334 119.033 70.2581 119.951 70.7074C120.854 71.1459 121.629 71.8088 122.202 72.6327Z" fill="white"/>
    <path d="M124.878 70.3325H127.786V75.8127C127.786 76.8791 127.86 77.6197 128.008 78.0346C128.137 78.4239 128.387 78.7622 128.721 79.001C129.048 79.2315 129.451 79.3467 129.93 79.3467C130.362 79.3601 130.788 79.2415 131.15 79.0068C131.499 78.7614 131.759 78.4111 131.895 78.0071C132.015 77.6794 132.075 76.979 132.075 75.906V70.3325H134.951V75.152C134.951 77.1387 134.793 78.4981 134.477 79.2301C134.091 80.1226 133.522 80.8072 132.77 81.2837C132.017 81.7602 131.062 81.9991 129.904 82.0002C128.647 82.0002 127.63 81.7225 126.853 81.1671C126.076 80.6117 125.53 79.8341 125.215 78.8344C124.992 78.144 124.881 76.8894 124.881 75.0704L124.878 70.3325Z" fill="white"/>
    <path d="M149.519 76.8457H140.227C140.362 77.6549 140.721 78.2981 141.303 78.7752C141.886 79.2523 142.63 79.4908 143.534 79.4908C144.05 79.4987 144.562 79.4039 145.04 79.2119C145.519 79.02 145.954 78.7347 146.321 78.3728L148.758 79.5016C148.151 80.3525 147.423 80.9815 146.576 81.3886C145.728 81.7957 144.722 81.9996 143.555 82.0001C141.747 82.0001 140.274 81.4372 139.138 80.3114C138.002 79.1856 137.434 77.776 137.434 76.0826C137.434 74.3469 138.001 72.9059 139.135 71.7596C140.269 70.6132 141.691 70.04 143.4 70.04C145.216 70.04 146.693 70.6132 147.83 71.7596C148.967 72.9059 149.536 74.4202 149.537 76.3025L149.519 76.8457ZM146.626 74.5963C146.437 73.9663 146.038 73.4202 145.495 73.0492C144.921 72.6483 144.236 72.4394 143.536 72.4527C142.775 72.4374 142.029 72.6715 141.413 73.1192C141.031 73.3969 140.677 73.8882 140.352 74.593L146.626 74.5963Z" fill="white"/>
    <path d="M151.837 70.3326H154.739V71.499C155.396 70.953 155.993 70.5737 156.528 70.3609C157.049 70.1501 157.605 70.0415 158.167 70.041C159.314 70.041 160.286 70.4348 161.084 71.2224C161.756 71.8889 162.092 72.8786 162.093 74.1916V81.7087H159.222V76.7292C159.222 75.3712 159.16 74.4695 159.036 74.0241C158.912 73.5787 158.697 73.2393 158.39 73.006C158.059 72.7657 157.658 72.6425 157.249 72.6561C156.689 72.6468 156.147 72.8559 155.738 73.2393C155.317 73.6281 155.026 74.1624 154.863 74.8422C154.778 75.1971 154.736 75.9664 154.737 77.1499V81.7137H151.835L151.837 70.3326Z" fill="white"/>
    <path d="M165.305 66.1404H168.217V70.3326H169.946V72.7894H168.217V81.7036H165.305V72.7894H163.811V70.3326H165.305V66.1404Z" fill="white"/>
    <path d="M170.906 70.3325H173.412V71.7646C173.684 71.2009 174.045 70.7724 174.496 70.4791C174.934 70.1896 175.448 70.0368 175.973 70.0401C176.387 70.0484 176.793 70.1483 177.163 70.3325L176.253 72.7893C175.909 72.6227 175.627 72.5394 175.406 72.5394C174.956 72.5394 174.576 72.8113 174.265 73.355C173.954 73.8988 173.799 74.9651 173.799 76.5542L173.81 77.1082V81.7086H170.907L170.906 70.3325Z" fill="white"/>
    <path d="M184.047 70.0401C185.124 70.0367 186.184 70.3141 187.121 70.8448C188.046 71.3534 188.817 72.1012 189.354 73.0098C189.891 73.9185 190.174 74.9548 190.173 76.0101C190.177 77.0685 189.896 78.1086 189.361 79.0218C188.836 79.9393 188.071 80.6965 187.147 81.212C186.204 81.7402 185.139 82.0122 184.058 82.001C182.402 82.001 180.988 81.4209 179.816 80.2606C178.645 79.1004 178.059 77.6905 178.06 76.0309C178.06 74.2536 178.721 72.7727 180.045 71.588C181.205 70.556 182.539 70.0401 184.047 70.0401ZM184.094 72.7268C183.194 72.7268 182.444 73.0351 181.844 73.6516C181.244 74.2681 180.945 75.0576 180.946 76.0201C180.946 77.0098 181.242 77.8113 181.833 78.4245C182.425 79.0376 183.175 79.3431 184.084 79.3409C184.992 79.3409 185.747 79.0307 186.349 78.4103C186.951 77.7899 187.252 76.9918 187.252 76.0159C187.252 75.0401 186.957 74.2473 186.365 73.6374C185.773 73.0276 185.016 72.7252 184.094 72.7302V72.7268Z" fill="white"/>
    <path d="M36.8187 87.7444C36.5871 87.7446 36.3587 87.6895 36.1525 87.5839C35.9464 87.4783 35.7684 87.325 35.6332 87.137C35.4981 86.9489 35.4097 86.7313 35.3754 86.5023C35.3412 86.2732 35.3619 86.0393 35.4361 85.8199L39.6333 73.3967C39.7223 73.1332 39.8849 72.9006 40.1018 72.7265C40.3187 72.5523 40.5809 72.4438 40.8575 72.4138C41.1341 72.3838 41.4136 72.4334 41.6628 72.5569C41.9121 72.6805 42.1208 72.8727 42.2644 73.1109L48.5735 83.5939C48.6786 83.7581 48.7497 83.9418 48.7825 84.134C48.8153 84.3261 48.8093 84.523 48.7647 84.7128C48.7201 84.9026 48.6379 85.0815 48.5229 85.239C48.4079 85.3964 48.2625 85.5293 48.0952 85.6296C47.928 85.7299 47.7423 85.7956 47.5492 85.823C47.356 85.8503 47.1594 85.8386 46.9709 85.7886C46.7824 85.7386 46.6058 85.6514 46.4516 85.532C46.2974 85.4126 46.1687 85.2635 46.0732 85.0935L41.3885 77.3123L38.1997 86.7497C38.1028 87.0392 37.9174 87.291 37.6696 87.4695C37.4218 87.648 37.1242 87.7441 36.8187 87.7444Z" fill="white"/>
    <path d="M11.8548 76.1167C11.7138 75.9798 11.5963 75.8204 11.5073 75.6452C11.3993 75.4342 11.334 75.2041 11.315 74.968C11.296 74.7318 11.3238 74.4942 11.3967 74.2687C11.4696 74.0433 11.5862 73.8344 11.7399 73.654C11.8936 73.4737 12.0813 73.3253 12.2924 73.2175L26.7433 65.8303C27.05 65.6735 27.3952 65.6077 27.7381 65.6406C28.0811 65.6735 28.4074 65.8038 28.6786 66.0162C28.9498 66.2285 29.1546 66.514 29.2687 66.8389C29.3829 67.1638 29.4017 67.5146 29.3228 67.8498L25.8582 82.5883C25.8055 82.8205 25.7073 83.0399 25.5693 83.234C25.4313 83.4281 25.2562 83.593 25.0542 83.7191C24.8522 83.8453 24.6272 83.9302 24.3921 83.969C24.1571 84.0078 23.9167 83.9998 23.6849 83.9453C23.453 83.8908 23.2342 83.791 23.041 83.6516C22.8479 83.5122 22.6843 83.336 22.5596 83.1331C22.435 82.9302 22.3517 82.7047 22.3146 82.4695C22.2775 82.2343 22.2874 81.9941 22.3436 81.7627L24.9198 70.814L13.9359 76.43C13.5999 76.6022 13.2183 76.6646 12.8449 76.6084C12.4715 76.5522 12.1252 76.3802 11.8548 76.1167Z" fill="white"/>
    <path d="M6.01745 65.0699C6.15979 65.3333 6.3628 65.5592 6.60971 65.7288C6.85661 65.8984 7.14034 66.0068 7.43745 66.0452C7.73456 66.0835 8.03653 66.0506 8.31843 65.9493C8.60032 65.8479 8.85405 65.681 9.05866 65.4622L20.1692 53.6113C20.4147 53.3481 20.5798 53.0202 20.645 52.6662C20.7102 52.3123 20.6728 51.9471 20.5372 51.6137C20.4016 51.2803 20.1734 50.9927 19.8796 50.7846C19.5858 50.5766 19.2387 50.4569 18.879 50.4397L2.40617 49.6899C2.15865 49.6781 1.91124 49.7152 1.67806 49.799C1.44488 49.8828 1.2305 50.0117 1.04716 50.1784C0.676886 50.5149 0.455519 50.9847 0.431757 51.4844C0.407995 51.9841 0.583785 52.4727 0.920454 52.8429C1.25712 53.213 1.72709 53.4343 2.22698 53.458L14.6285 54.0162L6.30248 62.8888C6.03271 63.1768 5.86011 63.5422 5.80898 63.9335C5.75784 64.3247 5.83076 64.7222 6.01745 65.0699Z" fill="white"/>
    <path d="M0.0833157 35.5088C-0.00285153 35.7958 -0.0193352 36.0992 0.0352311 36.3939C0.0897975 36.6885 0.213842 36.9659 0.397081 37.2031C0.580319 37.4403 0.817473 37.6303 1.08888 37.7576C1.36029 37.8848 1.65813 37.9456 1.95771 37.9348L18.1947 37.3974C18.555 37.3857 18.9043 37.271 19.2014 37.067C19.4984 36.863 19.7309 36.5782 19.8711 36.2464C20.0114 35.9145 20.0537 35.5494 19.9929 35.1943C19.9321 34.8392 19.7709 34.5089 19.5282 34.2425L8.39601 22.0774C8.05604 21.7193 7.58918 21.5086 7.09559 21.4905C6.60199 21.4725 6.12098 21.6485 5.75574 21.9809C5.39051 22.3133 5.17015 22.7755 5.14193 23.2685C5.11372 23.7614 5.2799 24.2457 5.60483 24.6176L13.985 33.7693L1.81686 34.165C1.42381 34.1803 1.04538 34.3181 0.734537 34.559C0.423696 34.8 0.196 35.1321 0.0833157 35.5088Z" fill="white"/>
    <path d="M13.9634 12.2792C13.7165 12.474 13.5194 12.7246 13.3884 13.0105C13.2573 13.2963 13.1961 13.6092 13.2098 13.9233C13.2235 14.2375 13.3116 14.5438 13.467 14.8172C13.6224 15.0906 13.8405 15.3232 14.1034 15.4958L28.3827 24.8674C28.6995 25.0748 29.0691 25.1871 29.4478 25.1912C29.8264 25.1953 30.1984 25.0909 30.5196 24.8905C30.8408 24.69 31.0979 24.4018 31.2605 24.06C31.4231 23.7181 31.4845 23.3369 31.4373 22.9613L29.2537 5.76929C29.1859 5.2493 28.9148 4.77729 28.4999 4.45649C28.0849 4.13569 27.5597 3.9922 27.0392 4.05739C26.5187 4.12258 26.0451 4.39115 25.7221 4.80438C25.3992 5.2176 25.253 5.74185 25.3157 6.26249L26.97 19.204L16.2754 12.1792C15.928 11.9521 15.5181 11.8395 15.1033 11.8575C14.6886 11.8754 14.2899 12.0229 13.9634 12.2792Z" fill="white"/>
    <path d="M40.8076 2.07365e-05C40.4746 -0.00145932 40.1461 0.0763089 39.8492 0.226895C39.5522 0.377481 39.2954 0.59656 39.1 0.866016C38.9045 1.13547 38.776 1.44756 38.7251 1.77649C38.6743 2.10541 38.7024 2.44172 38.8073 2.7576L44.4747 19.8888C44.6008 20.2684 44.833 20.604 45.1439 20.856C45.4548 21.1079 45.8313 21.2656 46.2289 21.3105C46.6266 21.3554 47.0288 21.2855 47.388 21.1091C47.7472 20.9328 48.0484 20.6573 48.256 20.3153L57.7414 4.64792C58.0227 4.17314 58.1053 3.60663 57.9714 3.07131C57.8375 2.53599 57.4978 2.07504 57.0261 1.78848C56.5543 1.50193 55.9886 1.41288 55.4515 1.54066C54.9145 1.66843 54.4496 2.00273 54.1576 2.47102L47.0234 14.2703L42.7878 1.43463C42.6492 1.01862 42.3836 0.656505 42.0284 0.399182C41.6732 0.141858 41.2463 0.00226418 40.8076 2.07365e-05Z" fill="white"/>
    <path d="M70.983 8.64766C70.7134 8.42287 70.3942 8.26542 70.0517 8.18832C69.7092 8.11122 69.3533 8.11669 69.0133 8.20427C68.6733 8.29185 68.3591 8.45903 68.0965 8.692C67.834 8.92497 67.6307 9.21704 67.5034 9.54408L60.58 27.2676C60.4267 27.6609 60.3892 28.0898 60.472 28.5037C60.5548 28.9176 60.7545 29.2991 61.0474 29.6032C61.3402 29.9073 61.7141 30.1211 62.1247 30.2195C62.5353 30.3179 62.9656 30.2968 63.3645 30.1585L81.6101 23.8069C81.8874 23.7143 82.1436 23.5676 82.3638 23.3754C82.584 23.1832 82.7639 22.9492 82.8931 22.687C83.0222 22.4249 83.0981 22.1397 83.1163 21.848C83.1345 21.5563 83.0946 21.264 82.999 20.9878C82.9034 20.7116 82.7539 20.4571 82.5593 20.2391C82.3647 20.021 82.1287 19.8437 81.8651 19.7174C81.6014 19.5911 81.3153 19.5183 81.0234 19.5033C80.7314 19.4882 80.4393 19.5312 80.1641 19.6297L66.4307 24.4184L71.6256 11.1445C71.793 10.7134 71.8211 10.2407 71.7058 9.79281C71.5905 9.34495 71.3377 8.94446 70.983 8.64766Z" fill="white"/>
    <path d="M237.496 40.9839H239.338V52.3066C239.338 54.0467 239.19 55.2572 238.893 55.9382C238.588 56.6278 238.066 57.1997 237.408 57.5677C236.714 57.9743 235.875 58.1775 234.889 58.1775C234.139 58.1765 233.394 58.0433 232.69 57.7843C231.967 57.5216 231.167 57.0598 230.29 56.3989L231.268 55.0659C232.231 55.6818 233.03 56.115 233.666 56.3655C234.056 56.5268 234.474 56.6117 234.897 56.6155C235.409 56.6203 235.91 56.4692 236.334 56.1823C236.754 55.9082 237.072 55.5036 237.239 55.0309C237.41 54.5521 237.496 53.6246 237.496 52.2483V40.9839Z" fill="white"/>
    <path d="M243.413 45.3511H245.128V51.1437C245.128 52.5577 245.21 53.5297 245.374 54.0595C245.611 54.8104 246.11 55.451 246.781 55.864C247.471 56.305 248.295 56.5255 249.253 56.5255C250.211 56.5255 251.023 56.3106 251.69 55.8807C252.327 55.4878 252.813 54.8913 253.07 54.1878C253.241 53.7091 253.327 52.6944 253.327 51.1437V45.3511H255.077V51.4403C255.077 53.1503 254.863 54.4386 254.434 55.305C254.011 56.165 253.336 56.8751 252.498 57.3403C251.636 57.8313 250.556 58.0765 249.257 58.0759C247.958 58.0754 246.874 57.8302 246.006 57.3403C245.16 56.8749 244.479 56.1578 244.058 55.2884C243.629 54.4103 243.414 53.0895 243.414 51.3261L243.413 45.3511Z" fill="white"/>
    <path d="M259.211 45.351H260.949V47.5746C261.643 46.7232 262.412 46.0864 263.257 45.6643C264.111 45.2405 265.053 45.0239 266.007 45.032C267.016 45.032 267.911 45.2674 268.693 45.7384C269.45 46.1829 270.054 46.8472 270.424 47.6429C270.796 48.441 270.982 49.6837 270.983 51.3711V57.7568H269.245V51.8418C269.245 50.4122 269.181 49.458 269.052 48.9792C268.851 48.1589 268.465 47.5413 267.894 47.1264C267.323 46.7115 266.579 46.5043 265.66 46.5049C264.638 46.4956 263.642 46.8334 262.837 47.463C262.003 48.1011 261.455 48.8917 261.192 49.8348C261.026 50.4502 260.942 51.5752 260.942 53.2097V57.7593H259.205L259.211 45.351Z" fill="white"/>
    <path d="M276.284 40.7439H278.034V45.351H280.819V46.7306H278.034V57.7568H276.284V46.7306H273.884V45.351H276.284V40.7439Z" fill="white"/>
    <path d="M289.873 45.032C291.961 45.032 293.69 45.7237 295.062 47.1072C296.31 48.3686 296.934 49.8623 296.933 51.5885C296.933 53.3147 296.273 54.8293 294.953 56.1323C293.635 57.4281 291.941 58.0759 289.869 58.0759C287.798 58.0759 286.1 57.4281 284.774 56.1323C283.456 54.836 282.797 53.3214 282.797 51.5885C282.797 49.8707 283.42 48.3805 284.668 47.1181C286.043 45.7279 287.779 45.0325 289.873 45.032ZM289.868 46.5941C288.418 46.5941 287.173 47.0842 286.131 48.0645C285.089 49.0448 284.569 50.2308 284.569 51.6227C284.566 52.5092 284.813 53.3785 285.282 54.1312C285.745 54.8959 286.411 55.5173 287.206 55.9265C288.032 56.3428 288.943 56.5597 289.868 56.5597C290.792 56.5597 291.703 56.3428 292.529 55.9265C293.324 55.517 293.99 54.8957 294.453 54.1312C294.922 53.3785 295.169 52.5092 295.166 51.6227C295.166 50.2342 294.643 49.0481 293.597 48.0645C292.597 47.1022 291.257 46.5737 289.869 46.5941H289.868Z" fill="white"/>
    <path d="M307.11 46.7082L305.983 47.7679C305.046 46.9398 304.129 46.5257 303.233 46.5257C302.699 46.5129 302.179 46.6954 301.771 47.0389C301.365 47.3805 301.162 47.7795 301.161 48.2361C301.161 48.6387 301.328 49.0225 301.662 49.3874C301.995 49.7523 302.697 50.1894 303.769 50.6987C305.074 51.3147 305.961 51.9076 306.43 52.4774C306.88 53.0272 307.124 53.7166 307.12 54.4269C307.12 55.4461 306.727 56.3089 305.94 57.0153C305.154 57.7218 304.172 58.0753 302.994 58.0759C302.22 58.0781 301.453 57.9189 300.744 57.6085C300.062 57.3195 299.456 56.878 298.971 56.318L300.073 55.1783C300.968 56.0981 301.918 56.558 302.922 56.558C303.624 56.558 304.222 56.3527 304.716 55.9423C305.21 55.5319 305.457 55.0492 305.457 54.4944C305.458 54.0397 305.282 53.6024 304.968 53.2739C304.641 52.9245 303.905 52.4835 302.759 51.9509C301.53 51.3733 300.694 50.8031 300.25 50.2405C299.758 49.6119 299.524 48.8191 299.598 48.0244C299.671 47.2296 300.046 46.4929 300.645 45.965C301.351 45.3419 302.244 45.0303 303.323 45.0303C304.577 45.0314 305.84 45.5907 307.11 46.7082Z" fill="white"/>
    <path d="M230.935 62.3723H232.823V81.0022H230.935V62.3723Z" fill="white"/>
    <path d="M243.265 67.2151C245.423 67.2151 247.211 67.9649 248.629 69.4645C249.919 70.8319 250.564 72.4503 250.564 74.3198C250.564 76.1893 249.882 77.8303 248.52 79.2426C247.158 80.6473 245.407 81.3493 243.269 81.3487C241.131 81.3482 239.375 80.6462 238.002 79.2426C236.64 77.8391 235.958 76.1982 235.958 74.3198C235.958 72.4587 236.603 70.8444 237.893 69.477C239.309 67.9696 241.099 67.2156 243.265 67.2151ZM243.259 68.908C241.759 68.908 240.471 69.4392 239.396 70.5017C238.321 71.5642 237.782 72.8488 237.779 74.3556C237.775 75.3116 238.03 76.2509 238.516 77.0741C238.986 77.8939 239.675 78.5673 240.505 79.0194C241.352 79.4691 242.296 79.7043 243.255 79.7043C244.214 79.7043 245.159 79.4691 246.005 79.0194C246.836 78.5671 247.524 77.8938 247.995 77.0741C248.481 76.2507 248.735 75.3115 248.731 74.3556C248.731 72.8488 248.19 71.5642 247.11 70.5017C246.029 69.4392 244.746 68.908 243.259 68.908Z" fill="white"/>
    <path d="M260.959 62.3723H262.793V81.0022H260.959V62.3723Z" fill="white"/>
    <path d="M273.213 67.2151C275.354 67.2151 277.129 67.9649 278.536 69.4645C279.814 70.8319 280.453 72.4503 280.453 74.3198C280.453 76.1893 279.777 77.8303 278.424 79.2426C277.073 80.6473 275.335 81.3493 273.211 81.3487C271.077 81.3487 269.335 80.6467 267.984 79.2426C266.633 77.8386 265.957 76.1976 265.955 74.3198C265.955 72.4587 266.594 70.8444 267.872 69.477C269.284 67.9696 271.064 67.2156 273.213 67.2151ZM273.206 68.908C271.719 68.908 270.442 69.4392 269.373 70.5017C268.304 71.5642 267.769 72.8488 267.77 74.3556C267.765 75.3109 268.018 76.2498 268.501 77.0741C268.966 77.8924 269.649 78.5657 270.474 79.0194C271.314 79.4695 272.252 79.705 273.205 79.705C274.157 79.705 275.095 79.4695 275.935 79.0194C276.76 78.5658 277.444 77.8924 277.909 77.0741C278.392 76.2497 278.644 75.3108 278.64 74.3556C278.64 72.8488 278.103 71.5642 277.031 70.5017C275.959 69.4392 274.684 68.908 273.206 68.908Z" fill="white"/>
    <path d="M296.019 67.5649H297.813V78.272C297.813 80.1604 297.642 81.54 297.3 82.4109C296.85 83.6226 295.982 84.6342 294.853 85.2643C293.691 85.9308 292.295 86.264 290.663 86.264C289.467 86.264 288.393 86.101 287.441 85.775C286.49 85.449 285.715 85.011 285.116 84.4612C284.518 83.9119 283.967 83.1085 283.463 82.051H285.41C285.94 82.9397 286.625 83.5986 287.463 84.028C288.302 84.4573 289.341 84.6714 290.58 84.6703C291.803 84.6703 292.835 84.4509 293.678 84.0121C294.521 83.5734 295.122 83.0213 295.48 82.3559C295.839 81.6894 296.019 80.6161 296.019 79.136V78.4445C295.353 79.2604 294.505 79.9096 293.544 80.3406C292.479 80.8166 291.319 81.0407 290.153 80.9956C288.987 80.9506 287.848 80.6375 286.823 80.0807C285.74 79.5108 284.835 78.6539 284.207 77.6039C283.593 76.5689 283.274 75.3856 283.285 74.1823C283.28 72.9568 283.613 71.7536 284.247 70.7049C284.887 69.6302 285.807 68.7487 286.908 68.154C288.002 67.5383 289.236 67.2149 290.492 67.215C291.498 67.2074 292.494 67.4204 293.409 67.839C294.312 68.255 295.182 68.9407 296.019 69.896V67.5649ZM290.728 68.8871C289.738 68.8795 288.763 69.1241 287.894 69.5977C287.049 70.0517 286.343 70.7262 285.851 71.5496C285.359 72.3729 285.099 73.3141 285.1 74.2731C285.1 75.7477 285.613 76.9668 286.638 77.9305C287.663 78.8941 288.991 79.3759 290.623 79.3759C292.271 79.3759 293.597 78.8983 294.601 77.943C295.604 76.9877 296.106 75.7316 296.106 74.1748C296.106 73.1618 295.875 72.2578 295.414 71.4631C294.95 70.6628 294.27 70.0085 293.453 69.5744C292.618 69.1165 291.68 68.8785 290.728 68.8829V68.8871Z" fill="white"/>
    <path d="M301.037 67.565H302.86V69.5294C303.403 68.7558 303.977 68.1773 304.58 67.7941C305.14 67.4239 305.796 67.2242 306.467 67.2192C306.959 67.2192 307.487 67.3717 308.051 67.6766L307.121 69.1304C306.747 68.9738 306.433 68.8954 306.178 68.8954C305.583 68.8954 305.009 69.1321 304.457 69.6053C303.905 70.0785 303.483 70.8147 303.191 71.8138C302.969 72.5803 302.858 74.1288 302.858 76.4592V81.0055H301.037V67.565Z" fill="white"/>
    <path d="M323.666 67.5651V81.0023H321.889V78.6921C321.134 79.5735 320.286 80.2364 319.346 80.6807C318.381 81.1307 317.327 81.3584 316.262 81.3472C314.28 81.3472 312.585 80.6574 311.179 79.2777C309.772 77.8981 309.07 76.2202 309.073 74.2441C309.073 72.3091 309.781 70.6534 311.198 69.2771C312.614 67.9008 314.318 67.2132 316.31 67.2144C317.46 67.2144 318.501 67.449 319.433 67.9183C320.365 68.3876 321.182 69.0919 321.886 70.0311V67.5651H323.666ZM316.462 68.8872C315.49 68.8793 314.532 69.1238 313.683 69.597C313.052 69.9412 312.497 70.4092 312.052 70.973C311.607 71.5368 311.28 72.1848 311.091 72.878C310.903 73.5712 310.856 74.2954 310.954 75.007C311.053 75.7186 311.294 76.4031 311.664 77.0192C312.151 77.8616 312.856 78.5572 313.706 79.0328C314.542 79.5096 315.489 79.7584 316.452 79.7543C317.432 79.7559 318.397 79.5097 319.256 79.0386C320.101 78.5946 320.805 77.9238 321.29 77.1017C321.77 76.266 322.017 75.3163 322.003 74.3524C322.003 72.7973 321.47 71.4974 320.402 70.4526C319.335 69.4079 318.021 68.8847 316.462 68.8831V68.8872Z" fill="white"/>
    <path d="M327.826 67.565H329.624V69.8877C330.249 69.0313 330.892 68.4054 331.551 68.0099C332.418 67.4944 333.408 67.2214 334.416 67.2193C335.078 67.2162 335.733 67.3465 336.343 67.6025C336.909 67.8284 337.418 68.1763 337.834 68.6214C338.219 69.0457 338.553 69.6531 338.834 70.4434C339.432 69.3881 340.179 68.5873 341.075 68.0407C341.943 67.5012 342.946 67.2166 343.968 67.2193C344.932 67.2193 345.784 67.454 346.523 67.9233C347.261 68.3927 347.836 69.0789 348.168 69.8877C348.529 70.7275 348.71 71.9863 348.71 73.6642V81.0022H346.876V73.6642C346.876 72.2202 346.77 71.2296 346.556 70.6925C346.341 70.1511 345.956 69.6939 345.459 69.3895C344.943 69.0619 344.326 68.898 343.609 68.898C342.757 68.8925 341.923 69.1516 341.224 69.6395C340.511 70.1244 339.96 70.8131 339.645 71.6156C339.311 72.4393 339.145 73.8147 339.145 75.742V81.0047H337.348V74.1232C337.348 72.5009 337.243 71.3995 337.033 70.8191C336.83 70.2463 336.445 69.7559 335.937 69.4229C335.414 69.073 334.794 68.898 334.076 68.898C333.243 68.8976 332.429 69.1495 331.742 69.6203C331.028 70.0951 330.471 70.7717 330.143 71.5639C329.797 72.3793 329.624 73.627 329.623 75.3071V81.0022H327.826V67.565Z" fill="white"/>
    <path d="M359.23 67.2151C361.375 67.2151 363.153 67.9649 364.564 69.4645C365.846 70.8319 366.487 72.4503 366.487 74.3198C366.487 76.1893 365.81 77.8303 364.456 79.2426C363.101 80.6473 361.36 81.3493 359.233 81.3487C357.097 81.3487 355.352 80.6467 353.997 79.2426C352.643 77.8386 351.964 76.1974 351.96 74.319C351.96 72.4578 352.601 70.8435 353.882 69.4761C355.295 67.9693 357.077 67.2156 359.23 67.2151ZM359.224 68.908C357.734 68.908 356.454 69.4392 355.385 70.5017C354.315 71.5642 353.78 72.8488 353.78 74.3556C353.776 75.311 354.028 76.2498 354.511 77.0741C354.978 77.8926 355.663 78.5659 356.489 79.0194C357.33 79.4695 358.27 79.705 359.224 79.705C360.178 79.705 361.117 79.4695 361.958 79.0194C362.785 78.5662 363.469 77.8928 363.936 77.0741C364.419 76.2498 364.672 75.311 364.668 74.3556C364.668 72.8488 364.131 71.5642 363.057 70.5017C361.983 69.4392 360.705 68.908 359.224 68.908Z" fill="white"/>
    <path d="M376.987 69.0312L375.836 70.18C374.879 69.283 373.943 68.8343 373.028 68.8337C372.477 68.8221 371.943 69.0208 371.534 69.3894C371.12 69.7604 370.913 70.1928 370.913 70.6865C370.913 71.1231 371.083 71.5396 371.425 71.9362C371.767 72.3328 372.485 72.8049 373.578 73.3525C374.911 74.019 375.817 74.6613 376.295 75.2795C376.758 75.8858 377.006 76.6292 377 77.3922C377.009 77.9185 376.906 78.4406 376.699 78.9244C376.492 79.4081 376.184 79.8425 375.797 80.199C374.994 80.9654 373.991 81.3484 372.787 81.3478C371.993 81.3499 371.208 81.177 370.488 80.8413C369.783 80.5235 369.163 80.0457 368.676 79.4458L369.801 78.2103C370.715 79.2067 371.685 79.7049 372.71 79.7049C373.384 79.7216 374.039 79.4836 374.544 79.0384C375.048 78.5941 375.3 78.0712 375.301 77.4697C375.303 76.9823 375.125 76.5113 374.801 76.1476C374.467 75.7693 373.716 75.2917 372.545 74.7146C371.289 74.0892 370.435 73.4716 369.982 72.8618C369.532 72.2594 369.293 71.5256 369.303 70.774C369.303 69.7526 369.664 68.9042 370.387 68.2289C371.109 67.5535 372.021 67.2158 373.122 67.2158C374.401 67.2153 375.689 67.8204 376.987 69.0312Z" fill="white"/>
    <path d="M215.933 25.7388H213.41V58.6457H215.933V25.7388Z" fill="white"/>
    <path d="M215.933 58.6458H213.41V75.8736H215.933V58.6458Z" fill="white"/>
    <path d="M215.933 75.8735H213.41V95H215.933V75.8735Z" fill="white"/>
    </svg>
    