<svg width="40" height="28" viewBox="0 0 40 25" fill="none" xmlns="http://www.w3.org/2000/svg">
    <path d="M1.24997 5.31534H38.7499C39.44 5.31534 39.9999 4.27861 39.9999 3.00144C39.9999 1.72409 39.4399 0.687546 38.7499 0.687546H1.24997C0.560044 0.687546 0 1.72409 0 3.00144C0 4.2788 0.560044 5.31534 1.24997 5.31534Z" fill="white" />
    <path d="M38.7499 10.5299H1.24997C0.55994 10.5299 0 11.5666 0 12.8438C0 14.1209 0.560044 15.1577 1.24997 15.1577H38.7499C39.44 15.1577 39.9999 14.1209 39.9999 12.8438C39.9999 11.5666 39.44 10.5299 38.7499 10.5299Z" fill="white" />
    <path d="M38.7499 20.3722H1.24997C0.55994 20.3722 0 21.4089 0 22.6861C0 23.9634 0.560044 25 1.24997 25H38.7499C39.44 25 39.9999 23.9633 39.9999 22.6861C40 21.4087 39.44 20.3722 38.7499 20.3722Z" fill="white" />
</svg>
    