<svg width="58" height="48" viewBox="0 0 58 48" fill="none" xmlns="http://www.w3.org/2000/svg">
<g clip-path="url(#clip0_41_424)">
<path d="M12.7524 -0.0626221H2.30398C1.03148 -0.0626221 0 1.13798 0 2.61804V45.3934C0 46.8732 1.03148 48.0741 2.30398 48.0741H12.7524C14.0243 48.0741 15.056 46.8732 15.056 45.3934V2.61804C15.056 1.13798 14.0243 -0.0626221 12.7524 -0.0626221ZM10.3787 32.9791H4.67735V28.8943H10.3787V32.9791ZM10.3787 25.7346H4.67735V7.0398H10.3787V25.7346Z" fill="white"/>
<path d="M29.8075 -0.0626221H19.3597C18.0872 -0.0626221 17.056 1.13798 17.056 2.61804V45.3934C17.056 46.8732 18.0872 48.0741 19.3597 48.0741H29.8075C31.08 48.0741 32.1112 46.8732 32.1112 45.3934V2.61804C32.1112 1.13798 31.08 -0.0626221 29.8075 -0.0626221ZM27.4341 32.9791H21.7331V28.8943H27.4341V32.9791ZM27.4341 25.7346H21.7331V7.0398H27.4341V25.7346Z" fill="white"/>
<path d="M57.6511 41.545L48.1371 1.93194C47.8081 0.560615 46.5857 -0.240066 45.4074 0.142767L35.7312 3.28953C34.5523 3.67287 33.8639 5.0953 34.1937 6.46595L43.7083 46.0792C44.0368 47.4505 45.2592 48.251 46.4373 47.8683L56.1138 44.7221C57.2925 44.3382 57.9806 42.9158 57.6511 41.545ZM43.6669 26.4666L39.5085 9.15316L44.789 7.43585L48.947 24.7493L43.6669 26.4666ZM45.2781 33.1741L44.37 29.392L49.6503 27.6747L50.5584 31.4575L45.2781 33.1741Z" fill="white"/>
</g>
<defs>
<clipPath id="clip0_41_424">
<rect width="58" height="48" fill="white"/>
</clipPath>
</defs>
</svg>
