<svg width="43" height="48" viewBox="0 0 43 48" fill="none" xmlns="http://www.w3.org/2000/svg">
<g clip-path="url(#clip0_39_196)">
<path d="M40.675 0H9.7799C8.69268 0 7.81124 0.79828 7.81124 1.78294V6.63086H2.32498C1.23776 6.63086 0.356323 7.42914 0.356323 8.4138V46.2171C0.356323 47.2017 1.23776 48 2.32498 48H33.297C34.3842 48 35.2656 47.2017 35.2656 46.2171V42.2701H40.675C41.7622 42.2701 42.6437 41.4718 42.6437 40.4872V1.78294C42.6437 0.79828 41.7622 0 40.675 0ZM27.6892 35.6003H7.93251C6.84529 35.6003 5.96385 34.802 5.96385 33.8173C5.96385 32.8327 6.84529 32.0344 7.93251 32.0344H27.6895C28.7767 32.0344 29.6581 32.8327 29.6581 33.8173C29.6581 34.802 28.7764 35.6003 27.6892 35.6003ZM27.6892 24.0333H7.93251C6.84529 24.0333 5.96385 23.235 5.96385 22.2503C5.96385 21.2657 6.84529 20.4674 7.93251 20.4674H27.6895C28.7767 20.4674 29.6581 21.2657 29.6581 22.2503C29.6581 23.235 28.7764 24.0333 27.6892 24.0333ZM27.6892 15.0687H7.93251C6.84529 15.0687 5.96385 14.2704 5.96385 13.2857C5.96385 12.3011 6.84529 11.5028 7.93251 11.5028H27.6895C28.7767 11.5028 29.6581 12.3011 29.6581 13.2857C29.6581 14.2704 28.7764 15.0687 27.6892 15.0687ZM38.7063 38.7042H35.2656V8.4138C35.2656 7.42914 34.3842 6.63086 33.297 6.63086H11.7486V3.56587H38.7063V38.7042V38.7042Z" fill="white"/>
</g>
<defs>
<clipPath id="clip0_39_196">
<rect width="43" height="48" fill="white"/>
</clipPath>
</defs>
</svg>
