<svg width="48" height="48" viewBox="0 0 48 48" fill="none" xmlns="http://www.w3.org/2000/svg">
<rect width="48" height="48" rx="6" fill="#5F86B1"/>
<g clip-path="url(#clip0_49_880)">
<path d="M38.3199 11.2455C37.8486 11.5182 37.3641 11.7483 36.869 11.9352C37.4552 11.0704 37.9021 10.0527 38.1749 8.93919C38.236 8.68958 38.1726 8.41637 38.0154 8.25312C37.8583 8.08975 37.6401 8.07018 37.4672 8.20388C36.4157 9.01747 35.2813 9.60215 34.0919 9.94404C32.8937 8.41662 31.2664 7.54736 29.584 7.54736C26.0329 7.54736 23.1438 11.3164 23.1438 15.9492C23.1438 16.3141 23.1615 16.6769 23.1966 17.0347C18.7899 16.53 14.6932 13.7043 11.88 9.20217C11.7797 9.04171 11.6253 8.95522 11.4671 8.97176C11.3089 8.98792 11.1667 9.10433 11.0868 9.28323C10.5162 10.5605 10.2146 12.0214 10.2146 13.5078C10.2146 15.5323 10.7686 17.4531 11.7473 18.954C11.4497 18.8196 11.1609 18.6515 10.8853 18.4519C10.7374 18.3445 10.5568 18.3461 10.4098 18.4561C10.2627 18.5661 10.1705 18.7683 10.1666 18.9894C10.1659 19.0266 10.1659 19.0639 10.1659 19.1016C10.1659 22.1235 11.4126 24.8442 13.3185 26.327C13.1548 26.3057 12.9911 26.2747 12.8286 26.2342C12.6609 26.1924 12.4886 26.2691 12.3756 26.4358C12.2623 26.6025 12.2249 26.8348 12.277 27.0469C12.9825 29.9205 14.7989 32.0341 16.9947 32.6785C15.1735 34.1666 13.0908 34.9461 10.9045 34.9461C10.4483 34.9461 9.98949 34.9112 9.54045 34.8418C9.31739 34.8072 9.1041 34.9791 9.02813 35.2558C8.95216 35.5327 9.03268 35.8414 9.22245 36.0001C12.0311 38.3496 15.2788 39.5914 18.6141 39.5914C25.1709 39.5914 29.2727 35.5576 31.559 32.1736C34.41 27.9541 36.0451 22.369 36.0451 16.8505C36.0451 16.62 36.0424 16.3872 36.0369 16.1551C37.1617 15.0495 38.1302 13.7115 38.9182 12.1736C39.0379 11.94 39.0249 11.6313 38.8863 11.4163C38.7478 11.2012 38.517 11.1316 38.3199 11.2455Z" fill="white"/>
</g>
<defs>
<clipPath id="clip0_49_880">
<rect width="30" height="39.1387" fill="white" transform="translate(9 4)"/>
</clipPath>
</defs>
</svg>
