<svg width="40" height="48" viewBox="0 0 40 48" fill="none" xmlns="http://www.w3.org/2000/svg">
<g clip-path="url(#clip0_39_152)">
<path d="M24.3639 0H6.5C4.70979 0 2.9929 0.632141 1.72703 1.75736C0.461158 2.88258 -0.25 4.4087 -0.25 6V42C-0.25 43.5913 0.461158 45.1174 1.72703 46.2426C2.9929 47.3679 4.70979 48 6.5 48H33.5C35.2902 48 37.0071 47.3679 38.273 46.2426C39.5388 45.1174 40.25 43.5913 40.25 42V14.121C40.2498 13.3254 39.8941 12.5625 39.2611 12L26.75 0.879C26.1172 0.316352 25.2589 0.000169912 24.3639 0V0ZM25.0625 10.5V4.5L35.1875 13.5H28.4375C27.5424 13.5 26.684 13.1839 26.051 12.6213C25.4181 12.0587 25.0625 11.2956 25.0625 10.5ZM29.6323 23.562L19.5073 32.562C19.3505 32.7017 19.1643 32.8125 18.9593 32.8881C18.7542 32.9638 18.5345 33.0027 18.3125 33.0027C18.0905 33.0027 17.8708 32.9638 17.6657 32.8881C17.4607 32.8125 17.2745 32.7017 17.1177 32.562L12.0552 28.062C11.8984 27.9225 11.7739 27.757 11.689 27.5748C11.6041 27.3925 11.5604 27.1972 11.5604 27C11.5604 26.8028 11.6041 26.6075 11.689 26.4252C11.7739 26.243 11.8984 26.0775 12.0552 25.938C12.3721 25.6563 12.8019 25.4981 13.25 25.4981C13.4719 25.4981 13.6916 25.537 13.8966 25.6124C14.1016 25.6879 14.2879 25.7985 14.4448 25.938L18.3125 29.379L27.2427 21.438C27.5596 21.1563 27.9894 20.9981 28.4375 20.9981C28.8856 20.9981 29.3154 21.1563 29.6323 21.438C29.9491 21.7197 30.1271 22.1017 30.1271 22.5C30.1271 22.8983 29.9491 23.2803 29.6323 23.562V23.562Z" fill="white"/>
</g>
<defs>
<clipPath id="clip0_39_152">
<rect width="40" height="48" fill="white"/>
</clipPath>
</defs>
</svg>
