<svg width="39" height="47" viewBox="0 0 39 47" fill="none" xmlns="http://www.w3.org/2000/svg">
    <path d="M33.1726 5.91511C25.6215 -1.97171 13.3786 -1.97171 5.82747 5.91511C-1.72366 13.8019 -1.72366 26.589 5.82747 34.4757L16.6298 45.7583C17.391 46.5533 18.4234 47 19.5 47C20.5766 47 21.609 46.5533 22.3702 45.7583L33.1726 34.4757C40.7237 26.589 40.7237 13.8019 33.1726 5.91511ZM19.5 27.5391C15.6167 27.5391 12.4687 24.2512 12.4687 20.1953C12.4687 16.1395 15.6167 12.8516 19.5 12.8516C23.3833 12.8516 26.5312 16.1395 26.5312 20.1953C26.5312 24.2512 23.3833 27.5391 19.5 27.5391Z" fill="white" />
</svg>
    